<?xml version="1.0" encoding="utf-8"?>
<svg viewBox="-718.332 -630.569 1418.332 1266.444" xmlns="http://www.w3.org/2000/svg">
  <path d="M -700 244.886 C -700 189.891 -685.809 137.827 -660.488 91.402 C -685.809 44.977 -700 -7.087 -700 -62.082 C -700 -93.938 -695.238 -124.81 -686.31 -154.172 C -695.238 -183.535 -700 -214.407 -700 -246.263 C -700 -441.627 -520.914 -600 -300 -600 L 300 -600 C 520.914 -600 700 -441.627 700 -246.263 C 700 -214.407 695.238 -183.535 686.31 -154.172 C 695.238 -124.81 700 -93.938 700 -62.082 C 700 -7.087 685.809 44.977 660.488 91.402 C 685.809 137.827 700 189.891 700 244.886 C 700 440.25 520.914 598.623 300 598.623 L 300 600 L -300 600 L -300 598.623 C -520.914 598.623 -700 440.25 -700 244.886 Z" style="fill: rgb(216, 216, 216); stroke: rgb(0, 0, 0);"/>
</svg>