<?xml version="1.0" encoding="utf-8"?>
<svg viewBox="0 0 2000 2000" xmlns="http://www.w3.org/2000/svg">
  <path d="M 1000 2000 C 878.802 2000 767.675 1913.755 681.125 1770.278 C 518.075 1810.828 378.145 1793.33 292.282 1707.467 C 206.434 1621.619 188.927 1481.723 229.45 1318.71 C 86.135 1232.184 0 1121.122 0 1000 C 0 881.453 82.513 772.541 220.39 686.84 C 179.055 522.745 196.297 381.846 282.589 295.554 C 369.652 208.491 512.302 191.717 678.279 234.476 C 765.232 88.152 877.469 0 1000 0 C 1121.3 0 1232.512 86.39 1319.093 230.085 C 1481.527 189.995 1620.886 207.642 1706.496 293.253 C 1792.121 378.878 1809.76 518.272 1769.642 680.742 C 1913.501 767.347 2000 878.623 2000 1000 C 2000 1123.918 1909.842 1237.307 1760.534 1324.663 C 1799.893 1486.112 1782.009 1624.562 1696.803 1709.768 C 1612.399 1794.172 1475.75 1812.515 1316.252 1774.595 C 1230.086 1915.484 1119.978 2000 1000 2000 Z" style="fill: rgb(216, 216, 216); stroke: rgb(0, 0, 0);"/>
</svg>