<?xml version="1.0" encoding="utf-8"?>
<svg viewBox="0 0 500 500" xmlns="http://www.w3.org/2000/svg">
  <path d="M 244.552 500 C 211.307 500 181.417 468.774 160.747 419.075 C 116.473 434.65 78.606 433.561 57.153 412.109 C 36.822 391.778 34.782 356.704 47.881 315.406 C 23.147 297.778 8.792 276.78 8.792 254.24 C 8.792 226.704 30.215 201.469 65.814 181.869 C 50.249 137.606 51.341 99.751 72.79 78.302 C 93.255 57.837 128.657 55.904 170.309 69.29 C 190.161 31.614 216.131 8.792 244.552 8.792 C 269.093 8.792 291.806 25.808 310.331 54.709 C 350.524 42.492 384.578 44.86 404.49 64.772 C 425.805 86.087 427.016 123.604 411.756 167.509 C 465.689 188.23 477.837 214.065 476.441 248.885 C 474.8 289.819 473.562 312.58 430.622 332.92 C 442.347 372.485 439.801 405.964 420.127 425.638 C 399.474 446.291 363.61 448.07 321.461 434.278 C 301.296 475.058 274.263 500 244.552 500 Z" style="fill: rgb(216, 216, 216); stroke: rgb(0, 0, 0);"/>
</svg>