<?xml version="1.0" encoding="utf-8"?>
<svg viewBox="0 0 500 500" xmlns="http://www.w3.org/2000/svg">
  <path d="M 0 150 C 0 67.157 67.157 0 150 0 C 188.418 0 223.462 14.443 250 38.194 C 276.538 14.443 311.582 0 350 0 C 432.843 0 500 67.157 500 150 C 500 188.418 485.557 223.462 461.806 250 C 485.557 276.538 500 311.582 500 350 C 500 432.843 432.843 500 350 500 C 311.582 500 276.538 485.557 250 461.806 C 223.462 485.557 188.418 500 150 500 C 67.157 500 0 432.843 0 350 C 0 311.582 14.443 276.538 38.194 250 C 14.443 223.462 0 188.418 0 150 Z" style="fill: rgb(216, 216, 216); stroke: rgb(0, 0, 0);"/>
</svg>